<svg id="Layer_1" xmlns="http://www.w3.org/2000/svg" viewBox="0 0 900 265"><path fill="#003D62" d="M0-.7h900V265H0z"/><g fill="#008EB5"><path d="M413.7 57c.4 0 .8-.4.8-.8v-3.9l3.2 4.2c.2.3.4.5.8.5h.1c.4 0 .8-.3.8-.8v-5.7c0-.4-.3-.8-.8-.8-.4 0-.8.4-.8.8v3.7l-3.1-4c-.2-.3-.4-.5-.8-.5h-.2c-.4 0-.8.3-.8.8v5.7c0 .5.3.8.8.8M424.5 57.1c2.2 0 3.8-1.7 3.8-3.7s-1.6-3.7-3.8-3.7c-2.2 0-3.8 1.7-3.8 3.7s1.6 3.7 3.8 3.7m-2.1-3.8c0-1.2.9-2.2 2.2-2.2s2.2 1 2.2 2.3c0 1.2-.9 2.2-2.2 2.2-1.3 0-2.2-1-2.2-2.3zM430.6 56.9h2c2.3 0 3.8-1.6 3.8-3.6s-1.6-3.6-3.8-3.6h-2c-.4 0-.8.4-.8.8v5.6c0 .5.3.8.8.8m.8-5.7h1.2c1.3 0 2.2.9 2.2 2.2 0 1.3-.9 2.2-2.2 2.2h-1.2v-4.4zM438.6 56.9h4c.4 0 .7-.3.7-.7 0-.4-.3-.7-.7-.7h-3.3V54h2.7c.4 0 .7-.3.7-.7 0-.4-.3-.7-.7-.7h-2.7v-1.5h3.2c.4 0 .7-.3.7-.7 0-.4-.3-.7-.7-.7h-4c-.4 0-.8.4-.8.8v5.6c.1.5.5.8.9.8M444.6 56.2c.8.6 1.8.9 2.7.9 1.6 0 2.6-.8 2.6-2.2 0-1.3-.8-1.8-2.3-2.2-1.2-.3-1.6-.5-1.6-.9 0-.3.3-.6.9-.6.5 0 1 .2 1.5.5.1.1.2.1.4.1.4 0 .7-.3.7-.7 0-.3-.2-.5-.3-.6-.6-.4-1.4-.6-2.3-.6-1.5 0-2.5.9-2.5 2.2 0 1.4.9 1.8 2.4 2.2 1.2.3 1.5.5 1.5.9s-.4.7-1 .7c-.7 0-1.3-.2-1.8-.6-.1-.1-.2-.1-.5-.1-.4 0-.7.3-.7.7 0-.1.1.2.3.3M454.7 57.1c1.2 0 1.9-.3 2.6-.9.1-.1.3-.3.3-.6 0-.4-.3-.7-.7-.7-.2 0-.4.1-.5.2-.5.4-.9.6-1.6.6-1.2 0-2.1-1-2.1-2.3 0-1.2.9-2.2 2.1-2.2.6 0 1 .2 1.5.5.1.1.3.2.5.2.4 0 .8-.3.8-.8 0-.3-.1-.5-.3-.6-.6-.4-1.3-.7-2.4-.7-2.2 0-3.8 1.7-3.8 3.7-.1 1.9 1.5 3.6 3.6 3.6M459.7 57c.4 0 .8-.4.8-.8V54h2.9v2.2c0 .4.3.8.8.8s.8-.4.8-.8v-5.7c0-.4-.3-.8-.8-.8s-.8.4-.8.8v2.1h-2.9v-2.1c0-.4-.3-.8-.8-.8s-.8.4-.8.8v5.7c0 .5.3.8.8.8M470.2 57.1c2.2 0 3.8-1.7 3.8-3.7s-1.6-3.7-3.8-3.7c-2.2 0-3.8 1.7-3.8 3.7s1.6 3.7 3.8 3.7m-2.1-3.8c0-1.2.9-2.2 2.2-2.2s2.2 1 2.2 2.3c0 1.2-.9 2.2-2.2 2.2-1.3 0-2.2-1-2.2-2.3zM479 57.1c2.2 0 3.8-1.7 3.8-3.7s-1.6-3.7-3.8-3.7c-2.2 0-3.8 1.7-3.8 3.7-.1 2 1.5 3.7 3.8 3.7m-2.2-3.8c0-1.2.9-2.2 2.2-2.2 1.3 0 2.2 1 2.2 2.3 0 1.2-.9 2.2-2.2 2.2-1.3 0-2.2-1-2.2-2.3zM485 56.9h3.7c.4 0 .7-.3.7-.7 0-.4-.3-.7-.7-.7h-2.9v-5c0-.4-.3-.8-.8-.8-.4 0-.8.4-.8.8v5.7c0 .4.4.7.8.7M434.7 159.6h-29.5c-.7 0-1.2-.5-1.2-1.2v-4.6c0-.7.5-1.2 1.2-1.2h29.5c.7 0 1.2.5 1.2 1.2v4.6c.1.6-.5 1.2-1.2 1.2m-28.2-2.5h27V155h-27v2.1z"/><path d="M508.8 164.2H391.2c-.7 0-1.2-.5-1.2-1.2v-4.6c0-.7.5-1.2 1.2-1.2h117.6c.7 0 1.2.5 1.2 1.2v4.6c0 .6-.5 1.2-1.2 1.2m-116.4-2.5h115.1v-2.1H392.4v2.1z"/><path d="M494.7 159.6h-29.5c-.7 0-1.2-.5-1.2-1.2v-4.6c0-.7.5-1.2 1.2-1.2h29.5c.7 0 1.2.5 1.2 1.2v4.6c.1.6-.5 1.2-1.2 1.2m-28.2-2.5h27V155h-27v2.1zM455.5 111.1h-11c-.7 0-1.2-.5-1.2-1.2V95c0-.7.5-1.2 1.2-1.2h11c.7 0 1.2.5 1.2 1.2v14.9c0 .6-.5 1.2-1.2 1.2m-9.8-2.5h8.5V96.2h-8.5v12.4z"/><path d="M501.7 159.6h-7c-.7 0-1.2-.5-1.2-1.2V155h-24.3c-.7 0-1.2-.5-1.2-1.2v-29c-2.5-.8-10.4-3-18-3s-15.5 2.2-18 3v29c0 .7-.5 1.2-1.2 1.2h-24.3v3.4c0 .7-.5 1.2-1.2 1.2h-7c-.7 0-1.2-.5-1.2-1.2v-113c0-.7.5-1.2 1.2-1.2h103.4c.7 0 1.2.5 1.2 1.2v113c0 .6-.5 1.2-1.2 1.2m-5.7-2.5h4.5V46.6h-101v110.5h4.5v-3.4c0-.7.5-1.2 1.2-1.2h24.3v-28.7c0-.5.3-1 .8-1.2.4-.1 10-3.4 19.6-3.4 9.6 0 19.2 3.2 19.6 3.4.5.2.8.6.8 1.2v28.7h24.3c.7 0 1.2.5 1.2 1.2v3.4z"/><path d="M432.7 112c-.7 0-1.2-.5-1.2-1.2V87.4c0-.7.5-1.2 1.2-1.2s1.2.5 1.2 1.2v23.4c0 .6-.5 1.2-1.2 1.2M467.3 112c-.7 0-1.2-.5-1.2-1.2V87.4c0-.7.5-1.2 1.2-1.2s1.2.5 1.2 1.2v23.4c0 .6-.5 1.2-1.2 1.2M461.1 78.6h-.2c-3.5-.5-7.2-.7-10.9-.7s-7.4.2-10.9.7c-.3 0-.7-.1-1-.3-.3-.2-.4-.6-.4-.9V61.7c0-.7.5-1.2 1.2-1.2H461c.7 0 1.2.5 1.2 1.2v15.7c0 .4-.2.7-.4.9-.1.2-.4.3-.7.3M450 75.5c3.4 0 6.7.2 9.8.6V62.9h-19.7V76c3.2-.4 6.5-.5 9.9-.5M423.7 150.1h-7.5c-.7 0-1.2-.5-1.2-1.2V92.4h-2.3c-.7 0-1.2-.5-1.2-1.2v-3.7c0-.7.5-1.2 1.2-1.2h14.6c.7 0 1.2.5 1.2 1.2v3.7c0 .7-.5 1.2-1.2 1.2H425v56.5c0 .6-.6 1.2-1.3 1.2m-6.2-2.5h5V91.1c0-.7.5-1.2 1.2-1.2h2.3v-1.2h-12.1v1.2h2.3c.7 0 1.2.5 1.2 1.2v56.5zM425.6 155h-11.3c-.7 0-1.2-.5-1.2-1.2v-4.9c0-.7.5-1.2 1.2-1.2h11.3c.7 0 1.2.5 1.2 1.2v4.9c.1.7-.5 1.2-1.2 1.2m-10-2.4h8.8v-2.5h-8.8v2.5zM483.7 150.1h-7.5c-.7 0-1.2-.5-1.2-1.2V92.4h-2.3c-.7 0-1.2-.5-1.2-1.2v-3.7c0-.7.5-1.2 1.2-1.2h14.6c.7 0 1.2.5 1.2 1.2v3.7c0 .7-.5 1.2-1.2 1.2H485v56.5c0 .6-.6 1.2-1.3 1.2m-6.2-2.5h5V91.1c0-.7.5-1.2 1.2-1.2h2.3v-1.2h-12.1v1.2h2.3c.7 0 1.2.5 1.2 1.2v56.5zM453.8 90.1h-7.6c-.7 0-1.2-.5-1.2-1.2v-5c0-.2 0-.4.1-.5.1-.2 1.2-2.3 4.9-2.3s4.8 2.1 4.9 2.3c.1.2.1.3.1.5v5c0 .7-.5 1.2-1.2 1.2m-6.4-2.4h5.1v-3.4c-.2-.3-1-.8-2.6-.8s-2.3.5-2.6.8v3.4z"/><path d="M453.8 78s-.1 0 0 0c-2.5-.1-5-.1-7.5 0-.3 0-.7-.1-.9-.3-.2-.2-.4-.5-.4-.9v-3.3c0-.2 0-.4.1-.5.1-.2 1.2-2.3 4.9-2.3s4.8 2.1 4.9 2.3c.1.2.1.3.1.5v3.3c0 .3-.1.7-.4.9-.2.2-.5.3-.8.3m-6.4-4.2v1.7c1.7-.1 3.4-.1 5.1 0v-1.7c-.2-.3-1-.8-2.6-.8-1.5 0-2.2.6-2.5.8M491.1 155h-21.9c-.7 0-1.2-.5-1.2-1.2v-29.1c-2-.8-8.2-2.9-18-2.9-9.7 0-16 2.1-18 2.9v29.1c0 .7-.5 1.2-1.2 1.2h-21.9c-.7 0-1.2-.5-1.2-1.2V96.9c0-.7.5-1.2 1.2-1.2h6.1v-3.3h-2.3c-.7 0-1.2-.5-1.2-1.2v-3.7c0-.3.1-.7.4-.9.5-.5 12.6-11.1 38.1-11.1s37.6 10.6 38.1 11.1c.3.2.4.6.4.9v3.7c0 .7-.5 1.2-1.2 1.2H485v3.3h6.1c.7 0 1.2.5 1.2 1.2v56.9c0 .7-.5 1.2-1.2 1.2m-20.7-2.4h19.4V98.1h-6.1c-.7 0-1.2-.5-1.2-1.2v-5.7c0-.7.5-1.2 1.2-1.2h2.3v-2c-2.3-1.8-14-10.1-36.1-10.1-22 0-33.8 8.3-36.1 10.1v1.9h2.3c.7 0 1.2.5 1.2 1.2v5.7c0 .7-.5 1.2-1.2 1.2H410v54.5h19.4v-28.7c0-.5.3-.9.7-1.1.3-.1 7.2-3.4 19.7-3.4s19.5 3.3 19.7 3.4c.4.2.7.6.7 1.1v28.8zm-16.6-62.5h-7.6c-.7 0-1.2-.5-1.2-1.2v-5c0-.2 0-.4.1-.5.1-.2 1.2-2.3 4.9-2.3s4.8 2.1 4.9 2.3c.1.2.1.3.1.5v5c0 .7-.5 1.2-1.2 1.2m-6.4-2.4h5.1v-3.4c-.2-.3-1-.8-2.6-.8s-2.3.5-2.6.8v3.4z"/><path d="M485.6 155h-11.3c-.7 0-1.2-.5-1.2-1.2v-4.9c0-.7.5-1.2 1.2-1.2h11.3c.7 0 1.2.5 1.2 1.2v4.9c0 .7-.5 1.2-1.2 1.2m-10-2.4h8.8v-2.5h-8.8v2.5zM420 78.6c-2.5 0-4.4-1.5-4.4-3.5 0-1.9 1.9-4 4.4-4 2.5 0 4.4 2.2 4.4 4 0 2-1.9 3.5-4.4 3.5m0-5.1c-1.1 0-1.9 1-1.9 1.6 0 .4.8 1 1.9 1 1.2 0 1.9-.6 1.9-1 0-.5-.8-1.6-1.9-1.6"/><path d="M420 73.5c-.7 0-1.2-.5-1.2-1.2v-2.8c0-.7.5-1.2 1.2-1.2s1.2.5 1.2 1.2v2.8c0 .7-.5 1.2-1.2 1.2M420 79.9c-.7 0-1.2-.5-1.2-1.2v-1.3c0-.7.5-1.2 1.2-1.2s1.2.5 1.2 1.2v1.3c0 .7-.5 1.2-1.2 1.2"/><path d="M416.2 86.2c-.2 0-.4-.1-.6-.2-.4-.2-.6-.6-.6-1.1v-4.7c0-.2 0-.4.1-.5.1-.2 1.2-2.3 4.9-2.3s4.8 2.1 4.9 2.3c.1.2.1.3.1.5v.9c0 .5-.3 1-.8 1.1-2.7 1.1-5.2 2.3-7.4 3.6-.1.3-.4.4-.6.4m1.2-5.5v2.2c1.5-.8 3.2-1.6 4.9-2.3-.4-.3-1.1-.6-2.4-.6-1.5-.1-2.2.4-2.5.7M480 78.6c-2.5 0-4.4-1.5-4.4-3.5 0-1.9 1.9-4 4.4-4s4.4 2.2 4.4 4c0 2-2 3.5-4.4 3.5m0-5.1c-1.1 0-1.9 1-1.9 1.6 0 .4.8 1 1.9 1 1.2 0 1.9-.6 1.9-1 0-.5-.8-1.6-1.9-1.6"/><path d="M480 73.5c-.7 0-1.2-.5-1.2-1.2v-2.8c0-.7.5-1.2 1.2-1.2s1.2.5 1.2 1.2v2.8c0 .7-.5 1.2-1.2 1.2M480 79.9c-.7 0-1.2-.5-1.2-1.2v-1.3c0-.7.5-1.2 1.2-1.2s1.2.5 1.2 1.2v1.3c0 .7-.5 1.2-1.2 1.2"/><path d="M483.8 86.2c-.2 0-.4-.1-.6-.2-2.2-1.3-4.7-2.6-7.4-3.6-.5-.2-.8-.6-.8-1.1v-.9c0-.2 0-.4.1-.5.1-.2 1.2-2.3 4.9-2.3s4.8 2.1 4.9 2.3c.1.2.1.3.1.5V85c0 .4-.2.9-.6 1.1-.2.1-.4.1-.6.1m-6.2-5.7c1.7.7 3.4 1.5 4.9 2.3v-2.2c-.2-.3-1-.8-2.6-.8-1.2.1-1.9.5-2.3.7M448.2 73.3c-.3 0-.5-.1-.7-.2-.3-.2-.5-.6-.5-1v-3.8c0-.7.5-1.2 1.2-1.2h3.6c.7 0 1.2.5 1.2 1.2v3.8c0 .4-.2.7-.5 1-.3.2-.7.3-1.1.2-.8-.2-2.1-.2-2.9 0h-.3m1.8-2.7h.6v-1.2h-1.1v1.2h.5"/><path d="M450 69.4c-.7 0-1.2-.5-1.2-1.2v-3.5c0-.7.5-1.2 1.2-1.2s1.2.5 1.2 1.2v3.5c0 .7-.5 1.2-1.2 1.2M469.2 125.1c-.2 0-.4 0-.5-.1-.1 0-6.8-3.2-18.7-3.2-11.9 0-18.6 3.1-18.7 3.2-.4.2-.8.2-1.2-.1-.4-.2-.6-.6-.6-1v-6.8c0-.7.5-1.2 1.2-1.2h38.4c.7 0 1.2.5 1.2 1.2v6.8c0 .4-.2.8-.6 1 0 .2-.3.2-.5.2m-37.2-6.8v3.8c2.8-1 8.9-2.7 18-2.7 9 0 15.2 1.7 18 2.7v-3.8h-36zM547.4 161.9h-38.6c-.7 0-1.2-.5-1.2-1.2v-1.1h-5.8c-.7 0-1.2-.5-1.2-1.2v-34.5c0-.7.5-1.2 1.2-1.2h45.7c.7 0 1.2.5 1.2 1.2v36.8c-.1.6-.6 1.2-1.3 1.2m-37.4-2.5h36.2v-34.3H503v32h5.8c.7 0 1.2.5 1.2 1.2v1.1zM464.2 149h-28.3c-.7 0-1.2-.5-1.2-1.2s.5-1.2 1.2-1.2h28.3c.7 0 1.2.5 1.2 1.2s-.6 1.2-1.2 1.2"/><path d="M547.4 149h-38.6c-.7 0-1.2-.5-1.2-1.2s.5-1.2 1.2-1.2h38.6c.7 0 1.2.5 1.2 1.2s-.5 1.2-1.2 1.2M461.1 141.4H439c-.7 0-1.2-.5-1.2-1.2s.5-1.2 1.2-1.2h22.1c.7 0 1.2.5 1.2 1.2 0 .6-.6 1.2-1.2 1.2M547.4 141.4h-35.9c-.7 0-1.2-.5-1.2-1.2s.5-1.2 1.2-1.2h35.9c.7 0 1.2.5 1.2 1.2 0 .6-.5 1.2-1.2 1.2M455.5 133.7h-11c-.7 0-1.2-.5-1.2-1.2s.5-1.2 1.2-1.2h11c.7 0 1.2.5 1.2 1.2s-.5 1.2-1.2 1.2M547.4 133.7h-33.2c-.7 0-1.2-.5-1.2-1.2s.5-1.2 1.2-1.2h33.2c.7 0 1.2.5 1.2 1.2s-.5 1.2-1.2 1.2M391.2 161.9h-38.6c-.7 0-1.2-.5-1.2-1.2v-36.8c0-.7.5-1.2 1.2-1.2h45.7c.7 0 1.2.5 1.2 1.2v34.5c0 .7-.5 1.2-1.2 1.2h-5.8v1.1c-.1.6-.6 1.2-1.3 1.2m-37.4-2.5H390v-1.1c0-.7.5-1.2 1.2-1.2h5.8v-32h-43.2v34.3z"/><path d="M391.2 149h-38.6c-.7 0-1.2-.5-1.2-1.2s.5-1.2 1.2-1.2h38.6c.7 0 1.2.5 1.2 1.2s-.5 1.2-1.2 1.2M388.5 141.4h-35.9c-.7 0-1.2-.5-1.2-1.2s.5-1.2 1.2-1.2h35.9c.7 0 1.2.5 1.2 1.2 0 .6-.5 1.2-1.2 1.2M385.8 133.7h-33.2c-.7 0-1.2-.5-1.2-1.2s.5-1.2 1.2-1.2h33.2c.7 0 1.2.5 1.2 1.2s-.5 1.2-1.2 1.2M376.5 155.5h-23.7c-.7 0-1.2-.5-1.2-1.2s.5-1.2 1.2-1.2h23.7c.7 0 1.2.5 1.2 1.2s-.5 1.2-1.2 1.2M547.4 155.5h-23.9c-.7 0-1.2-.5-1.2-1.2s.5-1.2 1.2-1.2h23.9c.7 0 1.2.5 1.2 1.2s-.5 1.2-1.2 1.2"/></g><path fill="none" stroke="#008EB5" stroke-width="2" stroke-linecap="round" stroke-linejoin="round" stroke-miterlimit="10" d="M900 247.4l-108.6-62.7M900 267.5l-60.8-35.1M60.8 44.7L0 9.6M108.6 113.6L0 50.9"/><g fill="#FFF"><path d="M279.8 179.6h8.5l9.5 18.1 3.6 8.1h.2c-.3-3.9-1-9-1-13.3v-12.9h7.8v36.5H300l-9.5-18.2-3.6-8h-.2c.3 4 1 8.9 1 13.2V216h-7.8v-36.4zM315.3 197.7c0-11.9 6.7-18.8 16.6-18.8s16.6 6.9 16.6 18.8-6.7 19.1-16.6 19.1-16.6-7.2-16.6-19.1zm24.7 0c0-7.3-3.1-11.6-8.1-11.6s-8.1 4.4-8.1 11.6c0 7.3 3.1 12 8.1 12s8.1-4.7 8.1-12zM355.3 179.6h10.3c11.1 0 18.3 5.5 18.3 18.1s-7.2 18.4-17.9 18.4h-10.8v-36.5zm9.8 29.8c6.2 0 10.4-3 10.4-11.8s-4.1-11.4-10.4-11.4h-1.6v23.2h1.6zM390.9 179.6h22.8v6.9h-14.6v7.3h12.4v6.9h-12.4v8.4h15.2v6.9h-23.4v-36.4zM419.2 211.5l4.7-5.7c2.6 2.2 6 3.8 9 3.8 3.4 0 5.1-1.3 5.1-3.5 0-2.3-2.1-3-5.3-4.4l-4.8-2c-3.8-1.5-7.3-4.6-7.3-10 0-6 5.4-10.9 13-10.9 4.2 0 8.6 1.7 11.8 4.8l-4.2 5.2c-2.4-1.8-4.6-2.9-7.6-2.9-2.9 0-4.6 1.2-4.6 3.3 0 2.2 2.4 3 5.5 4.3l4.7 1.9c4.4 1.8 7.2 4.8 7.2 9.9 0 6-5 11.3-13.8 11.3-4.6.1-9.7-1.6-13.4-5.1zM451 198c0-12.1 8-19.2 17.2-19.2 4.7 0 8.5 2.2 11 4.8l-4.4 5.3c-1.8-1.7-3.8-2.9-6.4-2.9-5 0-9 4.4-9 11.8 0 7.5 3.5 11.9 8.8 11.9 3 0 5.3-1.5 7.1-3.4l4.4 5.2c-3 3.5-7.1 5.4-11.8 5.4-9.2-.2-16.9-6.6-16.9-18.9zM485.3 179.6h8.2v14.1h12.6v-14.1h8.3v36.5h-8.3v-15.2h-12.6v15.2h-8.2v-36.5zM521.3 197.7c0-11.9 6.7-18.8 16.6-18.8s16.6 6.9 16.6 18.8-6.7 19.1-16.6 19.1-16.6-7.2-16.6-19.1zm24.7 0c0-7.3-3.1-11.6-8.1-11.6s-8.1 4.4-8.1 11.6c0 7.3 3.1 12 8.1 12s8.1-4.7 8.1-12zM559.6 197.7c0-11.9 6.7-18.8 16.6-18.8 9.9 0 16.6 6.9 16.6 18.8s-6.7 19.1-16.6 19.1c-9.9-.1-16.6-7.2-16.6-19.1zm24.7 0c0-7.3-3.1-11.6-8.1-11.6s-8.1 4.4-8.1 11.6c0 7.3 3.1 12 8.1 12 5-.1 8.1-4.7 8.1-12zM599.7 179.6h8.2v29.6h14.4v6.9h-22.7v-36.5z"/></g><g fill="#FFF"><path d="M364.2 230.4h4.8l3.1 8.7c.4 1.1.8 2.4 1.1 3.6h.1c.4-1.2.7-2.5 1.1-3.6l3.1-8.7h4.8V250h-4v-7.2c0-1.9.4-4.8.6-6.7h-.1l-1.6 4.6-2.8 7.5H372l-2.8-7.5-1.6-4.6h-.1c.2 1.9.6 4.7.6 6.7v7.2h-4v-19.6zM386.1 240.1c0-6.4 3.6-10 8.9-10 5.3 0 8.9 3.7 8.9 10 0 6.4-3.6 10.2-8.9 10.2-5.3 0-8.9-3.8-8.9-10.2zm13.3 0c0-3.9-1.7-6.2-4.3-6.2s-4.3 2.3-4.3 6.2c0 3.9 1.7 6.4 4.3 6.4s4.3-2.5 4.3-6.4zM407.6 230.4h4.5l5.1 9.7 1.9 4.3h.1c-.2-2.1-.5-4.8-.5-7.1v-6.9h4.2V250h-4.5l-5.1-9.8-1.9-4.3h-.1c.2 2.2.5 4.8.5 7.1v6.9h-4.2v-19.5zM431.3 234.1H426v-3.7h15.2v3.7h-5.4V250h-4.4v-15.9zM444.2 230.4h12.2v3.7h-7.8v3.9h6.7v3.7h-6.7v4.5h8.1v3.7h-12.5v-19.5zM458.1 230.4h4.7l2.3 9.1c.6 2.1 1 4.1 1.6 6.3h.1c.6-2.2 1-4.1 1.6-6.3l2.3-9.1h4.5l-5.9 19.6H464l-5.9-19.6zM477.3 230.4h4.4V250h-4.4v-19.6zM486.4 230.4h5.5c6 0 9.8 3 9.8 9.7s-3.8 9.9-9.6 9.9h-5.8v-19.6zm5.2 16c3.3 0 5.5-1.6 5.5-6.3 0-4.7-2.2-6.1-5.5-6.1h-.8v12.4h.8zM505.4 230.4h12.2v3.7h-7.8v3.9h6.7v3.7h-6.7v4.5h8.1v3.7h-12.5v-19.5zM520.9 240.1c0-6.4 3.6-10 8.9-10 5.3 0 8.9 3.7 8.9 10 0 6.4-3.6 10.2-8.9 10.2-5.3 0-8.9-3.8-8.9-10.2zm13.3 0c0-3.9-1.7-6.2-4.3-6.2s-4.4 2.3-4.4 6.2c0 3.9 1.7 6.4 4.4 6.4s4.3-2.5 4.3-6.4z"/></g></svg>