<?xml version="1.0" encoding="utf-8"?>
<!-- Generator: Adobe Illustrator 18.1.1, SVG Export Plug-In . SVG Version: 6.00 Build 0)  -->
<svg version="1.1" id="Layer_1" xmlns="http://www.w3.org/2000/svg" xmlns:xlink="http://www.w3.org/1999/xlink" x="0px" y="0px"
	 viewBox="0 0 900 265" enable-background="new 0 0 900 265" xml:space="preserve">
<rect y="-0.7" fill="#003D62" width="900" height="265.7"/>
<g>
	<path fill="#008EB5" d="M413.7,57c0.4,0,0.8-0.4,0.8-0.8v-3.9l3.2,4.2c0.2,0.3,0.4,0.5,0.8,0.5h0.1c0.4,0,0.8-0.3,0.8-0.8v-5.7
		c0-0.4-0.3-0.8-0.8-0.8c-0.4,0-0.8,0.4-0.8,0.8v3.7l-3.1-4c-0.2-0.3-0.4-0.5-0.8-0.5h-0.2c-0.4,0-0.8,0.3-0.8,0.8v5.7
		C412.9,56.7,413.2,57,413.7,57"/>
	<path fill="#008EB5" d="M424.5,57.1c2.2,0,3.8-1.7,3.8-3.7v0c0-2-1.6-3.7-3.8-3.7c-2.2,0-3.8,1.7-3.8,3.7v0
		C420.7,55.4,422.3,57.1,424.5,57.1 M422.4,53.3c0-1.2,0.9-2.2,2.2-2.2s2.2,1,2.2,2.3v0c0,1.2-0.9,2.2-2.2,2.2
		C423.3,55.6,422.4,54.6,422.4,53.3L422.4,53.3z"/>
	<path fill="#008EB5" d="M430.6,56.9h2c2.3,0,3.8-1.6,3.8-3.6v0c0-2-1.6-3.6-3.8-3.6h-2c-0.4,0-0.8,0.4-0.8,0.8v5.6
		C429.8,56.6,430.1,56.9,430.6,56.9 M431.4,51.2h1.2c1.3,0,2.2,0.9,2.2,2.2v0c0,1.3-0.9,2.2-2.2,2.2h-1.2V51.2z"/>
	<path fill="#008EB5" d="M438.6,56.9h4c0.4,0,0.7-0.3,0.7-0.7c0-0.4-0.3-0.7-0.7-0.7h-3.3V54h2.7c0.4,0,0.7-0.3,0.7-0.7
		c0-0.4-0.3-0.7-0.7-0.7h-2.7v-1.5h3.2c0.4,0,0.7-0.3,0.7-0.7c0-0.4-0.3-0.7-0.7-0.7h-4c-0.4,0-0.8,0.4-0.8,0.8v5.6
		C437.8,56.6,438.2,56.9,438.6,56.9"/>
	<path fill="#008EB5" d="M444.6,56.2c0.8,0.6,1.8,0.9,2.7,0.9c1.6,0,2.6-0.8,2.6-2.2v0c0-1.3-0.8-1.8-2.3-2.2
		c-1.2-0.3-1.6-0.5-1.6-0.9v0c0-0.3,0.3-0.6,0.9-0.6c0.5,0,1,0.2,1.5,0.5c0.1,0.1,0.2,0.1,0.4,0.1c0.4,0,0.7-0.3,0.7-0.7
		c0-0.3-0.2-0.5-0.3-0.6c-0.6-0.4-1.4-0.6-2.3-0.6c-1.5,0-2.5,0.9-2.5,2.2v0c0,1.4,0.9,1.8,2.4,2.2c1.2,0.3,1.5,0.5,1.5,0.9v0
		c0,0.4-0.4,0.7-1,0.7c-0.7,0-1.3-0.2-1.8-0.6c-0.1-0.1-0.2-0.1-0.5-0.1c-0.4,0-0.7,0.3-0.7,0.7C444.3,55.8,444.4,56.1,444.6,56.2"
		/>
	<path fill="#008EB5" d="M454.7,57.1c1.2,0,1.9-0.3,2.6-0.9c0.1-0.1,0.3-0.3,0.3-0.6c0-0.4-0.3-0.7-0.7-0.7c-0.2,0-0.4,0.1-0.5,0.2
		c-0.5,0.4-0.9,0.6-1.6,0.6c-1.2,0-2.1-1-2.1-2.3v0c0-1.2,0.9-2.2,2.1-2.2c0.6,0,1,0.2,1.5,0.5c0.1,0.1,0.3,0.2,0.5,0.2
		c0.4,0,0.8-0.3,0.8-0.8c0-0.3-0.1-0.5-0.3-0.6c-0.6-0.4-1.3-0.7-2.4-0.7c-2.2,0-3.8,1.7-3.8,3.7v0C451,55.4,452.6,57.1,454.7,57.1"
		/>
	<path fill="#008EB5" d="M459.7,57c0.4,0,0.8-0.4,0.8-0.8v-2.2h2.9v2.2c0,0.4,0.3,0.8,0.8,0.8s0.8-0.4,0.8-0.8v-5.7
		c0-0.4-0.3-0.8-0.8-0.8s-0.8,0.4-0.8,0.8v2.1h-2.9v-2.1c0-0.4-0.3-0.8-0.8-0.8s-0.8,0.4-0.8,0.8v5.7C458.9,56.7,459.2,57,459.7,57"
		/>
	<path fill="#008EB5" d="M470.2,57.1c2.2,0,3.8-1.7,3.8-3.7v0c0-2-1.6-3.7-3.8-3.7c-2.2,0-3.8,1.7-3.8,3.7v0
		C466.4,55.4,468,57.1,470.2,57.1 M468.1,53.3c0-1.2,0.9-2.2,2.2-2.2s2.2,1,2.2,2.3v0c0,1.2-0.9,2.2-2.2,2.2
		C469,55.6,468.1,54.6,468.1,53.3L468.1,53.3z"/>
	<path fill="#008EB5" d="M479,57.1c2.2,0,3.8-1.7,3.8-3.7v0c0-2-1.6-3.7-3.8-3.7c-2.2,0-3.8,1.7-3.8,3.7v0
		C475.1,55.4,476.7,57.1,479,57.1 M476.8,53.3c0-1.2,0.9-2.2,2.2-2.2c1.3,0,2.2,1,2.2,2.3v0c0,1.2-0.9,2.2-2.2,2.2
		C477.7,55.6,476.8,54.6,476.8,53.3L476.8,53.3z"/>
	<path fill="#008EB5" d="M485,56.9h3.7c0.4,0,0.7-0.3,0.7-0.7c0-0.4-0.3-0.7-0.7-0.7h-2.9v-5c0-0.4-0.3-0.8-0.8-0.8
		c-0.4,0-0.8,0.4-0.8,0.8v5.7C484.2,56.6,484.6,56.9,485,56.9"/>
	<path fill="#008EB5" d="M434.7,159.6h-29.5c-0.7,0-1.2-0.5-1.2-1.2v-4.6c0-0.7,0.5-1.2,1.2-1.2h29.5c0.7,0,1.2,0.5,1.2,1.2v4.6
		C436,159,435.4,159.6,434.7,159.6 M406.5,157.1h27V155h-27V157.1z"/>
	<path fill="#008EB5" d="M508.8,164.2H391.2c-0.7,0-1.2-0.5-1.2-1.2v-4.6c0-0.7,0.5-1.2,1.2-1.2h117.6c0.7,0,1.2,0.5,1.2,1.2v4.6
		C510,163.6,509.5,164.2,508.8,164.2 M392.4,161.7h115.1v-2.1H392.4V161.7z"/>
	<path fill="#008EB5" d="M494.7,159.6h-29.5c-0.7,0-1.2-0.5-1.2-1.2v-4.6c0-0.7,0.5-1.2,1.2-1.2h29.5c0.7,0,1.2,0.5,1.2,1.2v4.6
		C496,159,495.4,159.6,494.7,159.6 M466.5,157.1h27V155h-27V157.1z"/>
	<path fill="#008EB5" d="M455.5,111.1h-11c-0.7,0-1.2-0.5-1.2-1.2V95c0-0.7,0.5-1.2,1.2-1.2h11c0.7,0,1.2,0.5,1.2,1.2v14.9
		C456.7,110.5,456.2,111.1,455.5,111.1 M445.7,108.6h8.5V96.2h-8.5V108.6z"/>
	<path fill="#008EB5" d="M501.7,159.6h-7c-0.7,0-1.2-0.5-1.2-1.2V155h-24.3c-0.7,0-1.2-0.5-1.2-1.2v-29c-2.5-0.8-10.4-3-18-3
		c-7.6,0-15.5,2.2-18,3v29c0,0.7-0.5,1.2-1.2,1.2h-24.3v3.4c0,0.7-0.5,1.2-1.2,1.2h-7c-0.7,0-1.2-0.5-1.2-1.2v-113
		c0-0.7,0.5-1.2,1.2-1.2h103.4c0.7,0,1.2,0.5,1.2,1.2v113C502.9,159,502.4,159.6,501.7,159.6 M496,157.1h4.5V46.6h-101v110.5h4.5
		v-3.4c0-0.7,0.5-1.2,1.2-1.2h24.3v-28.7c0-0.5,0.3-1,0.8-1.2c0.4-0.1,10-3.4,19.6-3.4c9.6,0,19.2,3.2,19.6,3.4
		c0.5,0.2,0.8,0.6,0.8,1.2v28.7h24.3c0.7,0,1.2,0.5,1.2,1.2V157.1z"/>
	<path fill="#008EB5" d="M432.7,112c-0.7,0-1.2-0.5-1.2-1.2V87.4c0-0.7,0.5-1.2,1.2-1.2c0.7,0,1.2,0.5,1.2,1.2v23.4
		C433.9,111.4,433.4,112,432.7,112"/>
	<path fill="#008EB5" d="M467.3,112c-0.7,0-1.2-0.5-1.2-1.2V87.4c0-0.7,0.5-1.2,1.2-1.2c0.7,0,1.2,0.5,1.2,1.2v23.4
		C468.5,111.4,468,112,467.3,112"/>
	<path fill="#008EB5" d="M461.1,78.6c-0.1,0-0.1,0-0.2,0c-3.5-0.5-7.2-0.7-10.9-0.7s-7.4,0.2-10.9,0.7c-0.3,0-0.7-0.1-1-0.3
		c-0.3-0.2-0.4-0.6-0.4-0.9V61.7c0-0.7,0.5-1.2,1.2-1.2h22.1c0.7,0,1.2,0.5,1.2,1.2v15.7c0,0.4-0.2,0.7-0.4,0.9
		C461.7,78.5,461.4,78.6,461.1,78.6 M450,75.5c3.4,0,6.7,0.2,9.8,0.6V62.9h-19.7V76C443.3,75.6,446.6,75.5,450,75.5"/>
	<path fill="#008EB5" d="M423.7,150.1h-7.5c-0.7,0-1.2-0.5-1.2-1.2V92.4h-2.3c-0.7,0-1.2-0.5-1.2-1.2v-3.7c0-0.7,0.5-1.2,1.2-1.2
		h14.6c0.7,0,1.2,0.5,1.2,1.2v3.7c0,0.7-0.5,1.2-1.2,1.2H425v56.5C425,149.5,424.4,150.1,423.7,150.1 M417.5,147.6h5V91.1
		c0-0.7,0.5-1.2,1.2-1.2h2.3v-1.2h-12.1v1.2h2.3c0.7,0,1.2,0.5,1.2,1.2V147.6z"/>
	<path fill="#008EB5" d="M425.6,155h-11.3c-0.7,0-1.2-0.5-1.2-1.2v-4.9c0-0.7,0.5-1.2,1.2-1.2h11.3c0.7,0,1.2,0.5,1.2,1.2v4.9
		C426.9,154.5,426.3,155,425.6,155 M415.6,152.6h8.8v-2.5h-8.8V152.6z"/>
	<path fill="#008EB5" d="M483.7,150.1h-7.5c-0.7,0-1.2-0.5-1.2-1.2V92.4h-2.3c-0.7,0-1.2-0.5-1.2-1.2v-3.7c0-0.7,0.5-1.2,1.2-1.2
		h14.6c0.7,0,1.2,0.5,1.2,1.2v3.7c0,0.7-0.5,1.2-1.2,1.2H485v56.5C485,149.5,484.4,150.1,483.7,150.1 M477.5,147.6h5V91.1
		c0-0.7,0.5-1.2,1.2-1.2h2.3v-1.2h-12.1v1.2h2.3c0.7,0,1.2,0.5,1.2,1.2V147.6z"/>
	<path fill="#008EB5" d="M453.8,90.1h-7.6c-0.7,0-1.2-0.5-1.2-1.2v-5c0-0.2,0-0.4,0.1-0.5c0.1-0.2,1.2-2.3,4.9-2.3s4.8,2.1,4.9,2.3
		c0.1,0.2,0.1,0.3,0.1,0.5v5C455,89.6,454.5,90.1,453.8,90.1 M447.4,87.7h5.1v-3.4c-0.2-0.3-1-0.8-2.6-0.8c-1.6,0-2.3,0.5-2.6,0.8
		V87.7z"/>
	<path fill="#008EB5" d="M453.8,78C453.8,78,453.7,78,453.8,78c-2.5-0.1-5-0.1-7.5,0c-0.3,0-0.7-0.1-0.9-0.3
		c-0.2-0.2-0.4-0.5-0.4-0.9v-3.3c0-0.2,0-0.4,0.1-0.5c0.1-0.2,1.2-2.3,4.9-2.3s4.8,2.1,4.9,2.3c0.1,0.2,0.1,0.3,0.1,0.5v3.3
		c0,0.3-0.1,0.7-0.4,0.9C454.4,77.9,454.1,78,453.8,78 M447.4,73.8v1.7c1.7-0.1,3.4-0.1,5.1,0v-1.7c-0.2-0.3-1-0.8-2.6-0.8
		C448.4,73,447.7,73.6,447.4,73.8"/>
	<path fill="#008EB5" d="M491.1,155h-21.9c-0.7,0-1.2-0.5-1.2-1.2v-29.1c-2-0.8-8.2-2.9-18-2.9c-9.7,0-16,2.1-18,2.9v29.1
		c0,0.7-0.5,1.2-1.2,1.2h-21.9c-0.7,0-1.2-0.5-1.2-1.2V96.9c0-0.7,0.5-1.2,1.2-1.2h6.1v-3.3h-2.3c-0.7,0-1.2-0.5-1.2-1.2v-3.7
		c0-0.3,0.1-0.7,0.4-0.9c0.5-0.5,12.6-11.1,38.1-11.1s37.6,10.6,38.1,11.1c0.3,0.2,0.4,0.6,0.4,0.9v3.7c0,0.7-0.5,1.2-1.2,1.2H485
		v3.3h6.1c0.7,0,1.2,0.5,1.2,1.2v56.9C492.3,154.5,491.8,155,491.1,155 M470.4,152.6h19.4V98.1h-6.1c-0.7,0-1.2-0.5-1.2-1.2v-5.7
		c0-0.7,0.5-1.2,1.2-1.2h2.3V88c-2.3-1.8-14-10.1-36.1-10.1c-22,0-33.8,8.3-36.1,10.1v1.9h2.3c0.7,0,1.2,0.5,1.2,1.2v5.7
		c0,0.7-0.5,1.2-1.2,1.2h-6.1v54.5h19.4v-28.7c0-0.5,0.3-0.9,0.7-1.1c0.3-0.1,7.2-3.4,19.7-3.4s19.5,3.3,19.7,3.4
		c0.4,0.2,0.7,0.6,0.7,1.1V152.6z M453.8,90.1h-7.6c-0.7,0-1.2-0.5-1.2-1.2v-5c0-0.2,0-0.4,0.1-0.5c0.1-0.2,1.2-2.3,4.9-2.3
		s4.8,2.1,4.9,2.3c0.1,0.2,0.1,0.3,0.1,0.5v5C455,89.6,454.5,90.1,453.8,90.1 M447.4,87.7h5.1v-3.4c-0.2-0.3-1-0.8-2.6-0.8
		c-1.6,0-2.3,0.5-2.6,0.8V87.7z"/>
	<path fill="#008EB5" d="M485.6,155h-11.3c-0.7,0-1.2-0.5-1.2-1.2v-4.9c0-0.7,0.5-1.2,1.2-1.2h11.3c0.7,0,1.2,0.5,1.2,1.2v4.9
		C486.8,154.5,486.3,155,485.6,155 M475.6,152.6h8.8v-2.5h-8.8V152.6z"/>
	<path fill="#008EB5" d="M420,78.6c-2.5,0-4.4-1.5-4.4-3.5c0-1.9,1.9-4,4.4-4c2.5,0,4.4,2.2,4.4,4C424.4,77.1,422.5,78.6,420,78.6
		 M420,73.5c-1.1,0-1.9,1-1.9,1.6c0,0.4,0.8,1,1.9,1c1.2,0,1.9-0.6,1.9-1C421.9,74.6,421.1,73.5,420,73.5"/>
	<path fill="#008EB5" d="M420,73.5c-0.7,0-1.2-0.5-1.2-1.2v-2.8c0-0.7,0.5-1.2,1.2-1.2c0.7,0,1.2,0.5,1.2,1.2v2.8
		C421.2,73,420.7,73.5,420,73.5"/>
	<path fill="#008EB5" d="M420,79.9c-0.7,0-1.2-0.5-1.2-1.2v-1.3c0-0.7,0.5-1.2,1.2-1.2c0.7,0,1.2,0.5,1.2,1.2v1.3
		C421.2,79.4,420.7,79.9,420,79.9"/>
	<path fill="#008EB5" d="M416.2,86.2c-0.2,0-0.4-0.1-0.6-0.2c-0.4-0.2-0.6-0.6-0.6-1.1v-4.7c0-0.2,0-0.4,0.1-0.5
		c0.1-0.2,1.2-2.3,4.9-2.3s4.8,2.1,4.9,2.3c0.1,0.2,0.1,0.3,0.1,0.5v0.9c0,0.5-0.3,1-0.8,1.1c-2.7,1.1-5.2,2.3-7.4,3.6
		C416.7,86.1,416.4,86.2,416.2,86.2 M417.4,80.7v2.2c1.5-0.8,3.2-1.6,4.9-2.3c-0.4-0.3-1.1-0.6-2.4-0.6
		C418.4,79.9,417.7,80.4,417.4,80.7"/>
	<path fill="#008EB5" d="M480,78.6c-2.5,0-4.4-1.5-4.4-3.5c0-1.9,1.9-4,4.4-4s4.4,2.2,4.4,4C484.4,77.1,482.4,78.6,480,78.6
		 M480,73.5c-1.1,0-1.9,1-1.9,1.6c0,0.4,0.8,1,1.9,1c1.2,0,1.9-0.6,1.9-1C481.9,74.6,481.1,73.5,480,73.5"/>
	<path fill="#008EB5" d="M480,73.5c-0.7,0-1.2-0.5-1.2-1.2v-2.8c0-0.7,0.5-1.2,1.2-1.2c0.7,0,1.2,0.5,1.2,1.2v2.8
		C481.2,73,480.7,73.5,480,73.5"/>
	<path fill="#008EB5" d="M480,79.9c-0.7,0-1.2-0.5-1.2-1.2v-1.3c0-0.7,0.5-1.2,1.2-1.2c0.7,0,1.2,0.5,1.2,1.2v1.3
		C481.2,79.4,480.7,79.9,480,79.9"/>
	<path fill="#008EB5" d="M483.8,86.2c-0.2,0-0.4-0.1-0.6-0.2c-2.2-1.3-4.7-2.6-7.4-3.6c-0.5-0.2-0.8-0.6-0.8-1.1v-0.9
		c0-0.2,0-0.4,0.1-0.5c0.1-0.2,1.2-2.3,4.9-2.3c3.7,0,4.8,2.1,4.9,2.3c0.1,0.2,0.1,0.3,0.1,0.5V85c0,0.4-0.2,0.9-0.6,1.1
		C484.2,86.2,484,86.2,483.8,86.2 M477.6,80.5c1.7,0.7,3.4,1.5,4.9,2.3v-2.2c-0.2-0.3-1-0.8-2.6-0.8C478.7,79.9,478,80.3,477.6,80.5
		"/>
	<path fill="#008EB5" d="M448.2,73.3c-0.3,0-0.5-0.1-0.7-0.2c-0.3-0.2-0.5-0.6-0.5-1v-3.8c0-0.7,0.5-1.2,1.2-1.2h3.6
		c0.7,0,1.2,0.5,1.2,1.2v3.8c0,0.4-0.2,0.7-0.5,1c-0.3,0.2-0.7,0.3-1.1,0.2c-0.8-0.2-2.1-0.2-2.9,0
		C448.4,73.3,448.3,73.3,448.2,73.3 M450,70.6c0.2,0,0.4,0,0.6,0v-1.2h-1.1v1.2C449.6,70.6,449.8,70.6,450,70.6"/>
	<path fill="#008EB5" d="M450,69.4c-0.7,0-1.2-0.5-1.2-1.2v-3.5c0-0.7,0.5-1.2,1.2-1.2c0.7,0,1.2,0.5,1.2,1.2v3.5
		C451.2,68.9,450.7,69.4,450,69.4"/>
	<path fill="#008EB5" d="M469.2,125.1c-0.2,0-0.4,0-0.5-0.1c-0.1,0-6.8-3.2-18.7-3.2c-11.9,0-18.6,3.1-18.7,3.2
		c-0.4,0.2-0.8,0.2-1.2-0.1c-0.4-0.2-0.6-0.6-0.6-1v-6.8c0-0.7,0.5-1.2,1.2-1.2h38.4c0.7,0,1.2,0.5,1.2,1.2v6.8c0,0.4-0.2,0.8-0.6,1
		C469.7,125.1,469.4,125.1,469.2,125.1 M432,118.3v3.8c2.8-1,8.9-2.7,18-2.7c9,0,15.2,1.7,18,2.7v-3.8H432z"/>
	<path fill="#008EB5" d="M547.4,161.9h-38.6c-0.7,0-1.2-0.5-1.2-1.2v-1.1h-5.8c-0.7,0-1.2-0.5-1.2-1.2v-34.5c0-0.7,0.5-1.2,1.2-1.2
		h45.7c0.7,0,1.2,0.5,1.2,1.2v36.8C548.6,161.3,548.1,161.9,547.4,161.9 M510,159.4h36.2v-34.3h-43.2v32h5.8c0.7,0,1.2,0.5,1.2,1.2
		V159.4z"/>
	<path fill="#008EB5" d="M464.2,149h-28.3c-0.7,0-1.2-0.5-1.2-1.2c0-0.7,0.5-1.2,1.2-1.2h28.3c0.7,0,1.2,0.5,1.2,1.2
		C465.4,148.5,464.8,149,464.2,149"/>
	<path fill="#008EB5" d="M547.4,149h-38.6c-0.7,0-1.2-0.5-1.2-1.2c0-0.7,0.5-1.2,1.2-1.2h38.6c0.7,0,1.2,0.5,1.2,1.2
		C548.6,148.5,548.1,149,547.4,149"/>
	<path fill="#008EB5" d="M461.1,141.4h-22.1c-0.7,0-1.2-0.5-1.2-1.2c0-0.7,0.5-1.2,1.2-1.2h22.1c0.7,0,1.2,0.5,1.2,1.2
		C462.3,140.8,461.7,141.4,461.1,141.4"/>
	<path fill="#008EB5" d="M547.4,141.4h-35.9c-0.7,0-1.2-0.5-1.2-1.2c0-0.7,0.5-1.2,1.2-1.2h35.9c0.7,0,1.2,0.5,1.2,1.2
		C548.6,140.8,548.1,141.4,547.4,141.4"/>
	<path fill="#008EB5" d="M455.5,133.7h-11c-0.7,0-1.2-0.5-1.2-1.2c0-0.7,0.5-1.2,1.2-1.2h11c0.7,0,1.2,0.5,1.2,1.2
		C456.7,133.2,456.2,133.7,455.5,133.7"/>
	<path fill="#008EB5" d="M547.4,133.7h-33.2c-0.7,0-1.2-0.5-1.2-1.2c0-0.7,0.5-1.2,1.2-1.2h33.2c0.7,0,1.2,0.5,1.2,1.2
		C548.6,133.2,548.1,133.7,547.4,133.7"/>
	<path fill="#008EB5" d="M391.2,161.9h-38.6c-0.7,0-1.2-0.5-1.2-1.2v-36.8c0-0.7,0.5-1.2,1.2-1.2h45.7c0.7,0,1.2,0.5,1.2,1.2v34.5
		c0,0.7-0.5,1.2-1.2,1.2h-5.8v1.1C392.4,161.3,391.9,161.9,391.2,161.9 M353.8,159.4H390v-1.1c0-0.7,0.5-1.2,1.2-1.2h5.8v-32h-43.2
		V159.4z"/>
	<path fill="#008EB5" d="M391.2,149h-38.6c-0.7,0-1.2-0.5-1.2-1.2c0-0.7,0.5-1.2,1.2-1.2h38.6c0.7,0,1.2,0.5,1.2,1.2
		C392.4,148.5,391.9,149,391.2,149"/>
	<path fill="#008EB5" d="M388.5,141.4h-35.9c-0.7,0-1.2-0.5-1.2-1.2c0-0.7,0.5-1.2,1.2-1.2h35.9c0.7,0,1.2,0.5,1.2,1.2
		C389.7,140.8,389.2,141.4,388.5,141.4"/>
	<path fill="#008EB5" d="M385.8,133.7h-33.2c-0.7,0-1.2-0.5-1.2-1.2c0-0.7,0.5-1.2,1.2-1.2h33.2c0.7,0,1.2,0.5,1.2,1.2
		C387,133.2,386.5,133.7,385.8,133.7"/>
	<path fill="#008EB5" d="M376.5,155.5h-23.7c-0.7,0-1.2-0.5-1.2-1.2c0-0.7,0.5-1.2,1.2-1.2h23.7c0.7,0,1.2,0.5,1.2,1.2
		C377.7,155,377.2,155.5,376.5,155.5"/>
	<path fill="#008EB5" d="M547.4,155.5h-23.9c-0.7,0-1.2-0.5-1.2-1.2c0-0.7,0.5-1.2,1.2-1.2h23.9c0.7,0,1.2,0.5,1.2,1.2
		C548.6,155,548.1,155.5,547.4,155.5"/>
</g>
<line fill="none" stroke="#008EB5" stroke-width="2" stroke-linecap="round" stroke-linejoin="round" stroke-miterlimit="10" x1="900" y1="247.4" x2="791.4" y2="184.7"/>
<line fill="none" stroke="#008EB5" stroke-width="2" stroke-linecap="round" stroke-linejoin="round" stroke-miterlimit="10" x1="900" y1="267.5" x2="839.2" y2="232.4"/>
<line fill="none" stroke="#008EB5" stroke-width="2" stroke-linecap="round" stroke-linejoin="round" stroke-miterlimit="10" x1="60.8" y1="44.7" x2="0" y2="9.6"/>
<line fill="none" stroke="#008EB5" stroke-width="2" stroke-linecap="round" stroke-linejoin="round" stroke-miterlimit="10" x1="108.6" y1="113.6" x2="0" y2="50.9"/>
<g>
	<path fill="#FFFFFF" d="M279.8,179.6h8.5l9.5,18.1l3.6,8.1h0.2c-0.3-3.9-1-9-1-13.3v-12.9h7.8v36.5H300l-9.5-18.2l-3.6-8h-0.2
		c0.3,4,1,8.9,1,13.2v12.9h-7.8V179.6z"/>
	<path fill="#FFFFFF" d="M315.3,197.7c0-11.9,6.7-18.8,16.6-18.8s16.6,6.9,16.6,18.8c0,11.9-6.7,19.1-16.6,19.1
		S315.3,209.6,315.3,197.7z M340,197.7c0-7.3-3.1-11.6-8.1-11.6s-8.1,4.4-8.1,11.6c0,7.3,3.1,12,8.1,12S340,205,340,197.7z"/>
	<path fill="#FFFFFF" d="M355.3,179.6h10.3c11.1,0,18.3,5.5,18.3,18.1s-7.2,18.4-17.9,18.4h-10.8V179.6z M365.1,209.4
		c6.2,0,10.4-3,10.4-11.8s-4.1-11.4-10.4-11.4h-1.6v23.2H365.1z"/>
	<path fill="#FFFFFF" d="M390.9,179.6h22.8v6.9h-14.6v7.3h12.4v6.9h-12.4v8.4h15.2v6.9h-23.4V179.6z"/>
	<path fill="#FFFFFF" d="M419.2,211.5l4.7-5.7c2.6,2.2,6,3.8,9,3.8c3.4,0,5.1-1.3,5.1-3.5c0-2.3-2.1-3-5.3-4.4l-4.8-2
		c-3.8-1.5-7.3-4.6-7.3-10c0-6,5.4-10.9,13-10.9c4.2,0,8.6,1.7,11.8,4.8l-4.2,5.2c-2.4-1.8-4.6-2.9-7.6-2.9c-2.9,0-4.6,1.2-4.6,3.3
		c0,2.2,2.4,3,5.5,4.3l4.7,1.9c4.4,1.8,7.2,4.8,7.2,9.9c0,6-5,11.3-13.8,11.3C428,216.7,422.9,215,419.2,211.5z"/>
	<path fill="#FFFFFF" d="M451,198c0-12.1,8-19.2,17.2-19.2c4.7,0,8.5,2.2,11,4.8l-4.4,5.3c-1.8-1.7-3.8-2.9-6.4-2.9
		c-5,0-9,4.4-9,11.8c0,7.5,3.5,11.9,8.8,11.9c3,0,5.3-1.5,7.1-3.4l4.4,5.2c-3,3.5-7.1,5.4-11.8,5.4C458.7,216.7,451,210.3,451,198z"
		/>
	<path fill="#FFFFFF" d="M485.3,179.6h8.2v14.1h12.6v-14.1h8.3v36.5h-8.3v-15.2h-12.6v15.2h-8.2V179.6z"/>
	<path fill="#FFFFFF" d="M521.3,197.7c0-11.9,6.7-18.8,16.6-18.8s16.6,6.9,16.6,18.8c0,11.9-6.7,19.1-16.6,19.1
		S521.3,209.6,521.3,197.7z M546,197.7c0-7.3-3.1-11.6-8.1-11.6s-8.1,4.4-8.1,11.6c0,7.3,3.1,12,8.1,12S546,205,546,197.7z"/>
	<path fill="#FFFFFF" d="M559.6,197.7c0-11.9,6.7-18.8,16.6-18.8c9.9,0,16.6,6.9,16.6,18.8c0,11.9-6.7,19.1-16.6,19.1
		C566.3,216.7,559.6,209.6,559.6,197.7z M584.3,197.7c0-7.3-3.1-11.6-8.1-11.6c-5,0-8.1,4.4-8.1,11.6c0,7.3,3.1,12,8.1,12
		C581.2,209.6,584.3,205,584.3,197.7z"/>
	<path fill="#FFFFFF" d="M599.7,179.6h8.2v29.6h14.4v6.9h-22.7V179.6z"/>
</g>
<g>
	<path fill="#FFFFFF" d="M364.2,230.4h4.8l3.1,8.7c0.4,1.1,0.8,2.4,1.1,3.6h0.1c0.4-1.2,0.7-2.5,1.1-3.6l3.1-8.7h4.8V250h-4v-7.2
		c0-1.9,0.4-4.8,0.6-6.7h-0.1l-1.6,4.6l-2.8,7.5h-2.4l-2.8-7.5l-1.6-4.6h-0.1c0.2,1.9,0.6,4.7,0.6,6.7v7.2h-4V230.4z"/>
	<path fill="#FFFFFF" d="M386.1,240.1c0-6.4,3.6-10,8.9-10c5.3,0,8.9,3.7,8.9,10c0,6.4-3.6,10.2-8.9,10.2
		C389.7,250.3,386.1,246.5,386.1,240.1z M399.4,240.1c0-3.9-1.7-6.2-4.3-6.2s-4.3,2.3-4.3,6.2c0,3.9,1.7,6.4,4.3,6.4
		S399.4,244,399.4,240.1z"/>
	<path fill="#FFFFFF" d="M407.6,230.4h4.5l5.1,9.7l1.9,4.3h0.1c-0.2-2.1-0.5-4.8-0.5-7.1v-6.9h4.2V250h-4.5l-5.1-9.8l-1.9-4.3h-0.1
		c0.2,2.2,0.5,4.8,0.5,7.1v6.9h-4.2V230.4z"/>
	<path fill="#FFFFFF" d="M431.3,234.1H426v-3.7h15.2v3.7h-5.4V250h-4.4V234.1z"/>
	<path fill="#FFFFFF" d="M444.2,230.4h12.2v3.7h-7.8v3.9h6.7v3.7h-6.7v4.5h8.1v3.7h-12.5V230.4z"/>
	<path fill="#FFFFFF" d="M458.1,230.4h4.7l2.3,9.1c0.6,2.1,1,4.1,1.6,6.3h0.1c0.6-2.2,1-4.1,1.6-6.3l2.3-9.1h4.5l-5.9,19.6H464
		L458.1,230.4z"/>
	<path fill="#FFFFFF" d="M477.3,230.4h4.4V250h-4.4V230.4z"/>
	<path fill="#FFFFFF" d="M486.4,230.4h5.5c6,0,9.8,3,9.8,9.7s-3.8,9.9-9.6,9.9h-5.8V230.4z M491.6,246.4c3.3,0,5.5-1.6,5.5-6.3
		c0-4.7-2.2-6.1-5.5-6.1h-0.8v12.4H491.6z"/>
	<path fill="#FFFFFF" d="M505.4,230.4h12.2v3.7h-7.8v3.9h6.7v3.7h-6.7v4.5h8.1v3.7h-12.5V230.4z"/>
	<path fill="#FFFFFF" d="M520.9,240.1c0-6.4,3.6-10,8.9-10c5.3,0,8.9,3.7,8.9,10c0,6.4-3.6,10.2-8.9,10.2
		C524.5,250.3,520.9,246.5,520.9,240.1z M534.2,240.1c0-3.9-1.7-6.2-4.3-6.2s-4.4,2.3-4.4,6.2c0,3.9,1.7,6.4,4.4,6.4
		S534.2,244,534.2,240.1z"/>
</g>
</svg>
